<?xml version="1.0" encoding="UTF-8"?>
<!DOCTYPE svg PUBLIC "-//W3C//DTD SVG 1.1//EN" "http://www.w3.org/Graphics/SVG/1.1/DTD/svg11.dtd">
<!-- Creator: CorelDRAW -->
<svg xmlns="http://www.w3.org/2000/svg" xml:space="preserve" width="103.098in" height="18.4411in" version="1.1" style="shape-rendering:geometricPrecision; text-rendering:geometricPrecision; image-rendering:optimizeQuality; fill-rule:evenodd; clip-rule:evenodd"
viewBox="0 0 36813.81 6584.9"
 xmlns:xlink="http://www.w3.org/1999/xlink"
 xmlns:xodm="http://www.corel.com/coreldraw/odm/2003">
 <defs>
  <style type="text/css">
   <![CDATA[
    .fil0 {fill:white;fill-rule:nonzero}
   ]]>
  </style>
 </defs>
 <g id="Layer_x0020_1">
  <metadata id="CorelCorpID_0Corel-Layer"/>
  <path class="fil0" d="M9586.37 4945.38l0 -2726.94 -999.47 0 0 -548.43 2665.37 0 0 548.43 -1004.62 0 0 2726.94 -661.28 0zm-6030.18 -2178.69c0,-18.26 -7.16,-35.81 -20.35,-48.83 -12.84,-12.93 -30.31,-20.26 -48.82,-20.26l-294.08 0c-18.26,0 -35.72,7.34 -48.91,20.26 -12.84,13.02 -20,30.57 -20,48.83l0 309.81 -309.81 0c-18.34,0 -35.9,7.08 -48.91,19.91 -13.02,13.19 -20.26,30.75 -20.26,48.91l0 294.08c0,18.6 7.25,36.07 20.26,48.91 13.02,13.19 30.57,20.35 48.91,20.35l309.81 0 0 309.46c0,18.26 7.16,35.81 20,48.82 13.19,13.02 30.66,20.26 48.91,20.26l294.08 0c18.52,0 35.98,-7.25 48.82,-20.26 13.19,-13.01 20.35,-30.57 20.35,-48.82l0 -309.46 309.37 0c18.34,0 35.9,-7.16 48.82,-20.35 13.02,-12.84 20.26,-30.31 20.26,-48.91l0 -294.08c0,-18.17 -7.25,-35.72 -20.26,-48.91 -12.93,-12.84 -30.48,-19.91 -48.82,-19.91l-309.37 0 0 -309.81zm-3556.18 1574.01c0,1239.49 1004.71,2244.2 2244.2,2244.2l1312.68 0 0 -1585.89 -1077.12 -11c0,0 -199.14,20.26 -449.73,-208.4 -188.4,-171.98 -210.5,-454.62 -210.5,-454.62l-4.37 -2266.47 -1815.17 0 0 2282.19zm6586.04 -2096.42c0,-1239.49 -1004.62,-2244.29 -2244.11,-2244.29l-1312.68 0 0 1585.98 1077.12 10.92c0,0 199.14,-20.18 449.64,208.49 188.49,171.89 210.59,454.62 210.59,454.62l4.28 2266.47 1815.17 0 0 -2282.2zm5692.07 2762.58c-553.58,0 -830.37,-314.35 -830.37,-943.13l0 -1604.41 645.82 0 0 1594.19c0,170.84 32.49,295.57 97.39,374.09 68.39,78.61 174.25,117.92 317.84,117.92 177.66,0 319.5,-64.9 425.45,-194.78 105.86,-129.79 158.88,-310.94 158.88,-543.28l0 -1348.14 645.82 0 0 2486.05 -512.53 0c-17.12,-37.64 -35.9,-97.39 -56.42,-179.4 -37.56,-112.76 -56.42,-246.04 -56.42,-399.86l0 -30.74c-54.68,211.9 -155.47,377.58 -302.38,497.24 -146.91,116.17 -324.57,174.25 -533.06,174.25zm1958.06 -61.49l0 -2486.05 517.77 0c23.84,51.27 44.37,114.51 61.49,189.71 40.97,133.28 61.49,285.35 61.49,456.19l0 138.35c51.27,-290.42 138.44,-498.9 261.42,-625.29 123.07,-129.88 263.17,-194.77 420.3,-194.77 109.35,0 187.96,39.3 235.83,117.83l0 476.72c-307.53,-6.81 -536.55,58.08 -686.87,194.78 -146.91,136.69 -220.46,374.18 -220.46,712.46l0 1020.08 -650.97 0zm3363.5 56.34c-451.04,0 -739.8,-222.12 -866.27,-666.34 -17.03,235.83 -39.31,391.3 -66.64,466.5 -17.12,58 -35.9,105.86 -56.34,143.5l-492.09 0 0 -3449.62 650.97 0 0 1542.83c54.68,-184.56 155.47,-336.62 302.38,-456.19 146.91,-123.07 334.87,-184.56 563.89,-184.56 314.35,0 560.4,116.17 738.05,348.59 177.74,228.93 266.57,533.06 266.57,912.39l0 5.15c0,423.7 -97.39,753.42 -292.16,989.25 -191.37,232.33 -440.82,348.5 -748.36,348.5zm-194.77 -445.89c181.06,0 322.91,-70.05 425.45,-210.23 102.45,-140.01 153.72,-345.09 153.72,-615.07l0 -169.1c0,-215.3 -51.27,-382.74 -153.72,-502.31 -99.14,-123.07 -240.98,-184.56 -425.45,-184.56 -181.15,0 -333.21,64.9 -456.19,194.77 -119.66,129.88 -179.4,307.54 -179.4,533.06l0 97.39c0,283.6 59.74,497.24 179.4,640.75 119.57,143.51 271.64,215.3 456.19,215.3zm2774.72 445.89c-351.99,0 -647.56,-111.01 -886.71,-333.13 -239.23,-225.52 -358.81,-557.08 -358.81,-994.4l0 -10.22c0,-389.64 114.42,-697.17 343.35,-922.69 232.42,-228.93 533.14,-343.43 902.17,-343.43 369.03,0 669.75,112.76 902.17,338.37 232.33,225.52 348.5,533.06 348.5,922.61l0 10.22c0,440.82 -119.57,774.04 -358.81,999.56 -239.15,222.11 -536.46,333.13 -891.86,333.13zm0 -425.45c392.96,0 589.48,-276.79 589.48,-830.29l0 -184.56c0,-232.42 -53.02,-411.82 -158.88,-538.21 -105.95,-126.47 -249.45,-189.62 -430.6,-189.62 -181.15,0 -324.65,63.15 -430.51,189.62 -102.54,126.39 -153.81,305.79 -153.81,538.21l0 184.56c0,553.49 194.78,830.29 584.33,830.29zm3470.06 -379.24l753.34 -2527.02 1004.62 0 0 3275.37 -661.19 0 0 -2706.42 -809.76 2706.42 -620.22 0 -804.78 -2675.67 0 2675.67 -599.7 0 0 -3275.37 989.25 0 748.44 2527.02zm4446.74 -358.81l-1568.42 0c13.63,246.05 83.85,420.3 210.32,522.84 126.39,99.05 317.75,148.57 574.02,148.57 293.91,0 543.28,-56.34 748.27,-169.1l0 358.81c-58,82.02 -167.26,153.72 -327.89,215.3 -157.39,58.08 -346.93,87.08 -568.96,87.08 -410.25,0 -729.58,-111.01 -958.59,-333.13 -225.61,-225.52 -338.37,-548.51 -338.37,-968.81l0 -5.07c0,-393.04 112.76,-707.39 338.37,-943.13 225.52,-235.83 516.02,-353.74 871.43,-353.74 355.22,0 623.54,97.39 804.69,292.16 184.38,194.78 276.88,445.98 276.88,753.51 0,140.1 -20.61,271.64 -61.75,394.7zm-1009.6 -1014.93c-167.61,0 -300.72,58.08 -399.86,174.34 -99.14,116.17 -152.06,287.01 -158.97,512.53l1045.67 0 0 -51.27c0,-423.7 -162.2,-635.6 -486.85,-635.6zm2367.97 2183.58c-314.26,0 -563.8,-121.32 -748.27,-363.96 -181.15,-246.04 -271.72,-568.95 -271.72,-968.72l0 -5.15c0,-399.77 97.47,-710.8 292.34,-932.83 198.01,-222.2 449.21,-333.22 753.34,-333.22 222.11,0 401.43,54.68 538.21,164.03 136.6,109.35 232.24,249.45 287.01,420.3l0 -1491.56 651.06 0 0 3449.62 -512.62 0c-24.02,-51.27 -42.71,-105.95 -56.34,-164.03 -41.14,-112.76 -63.32,-247.79 -66.56,-404.92 -147,420.3 -435.84,630.44 -866.45,630.44zm215.39 -456.19c180.97,0 331.38,-71.8 451.13,-215.3 122.98,-143.5 184.38,-334.87 184.38,-574.11l0 -92.23c0,-266.48 -59.83,-466.41 -179.32,-599.7 -116.25,-133.29 -268.32,-199.93 -456.19,-199.93 -181.15,0 -323.08,59.83 -425.45,179.4 -99.14,119.66 -148.57,297.32 -148.57,533.14l0 174.25c0,249.45 49.44,444.23 148.57,584.33 99.14,140.1 240.8,210.15 425.45,210.15zm2123.84 -2362.99c-102.63,0 -189.8,-34.15 -261.42,-102.54 -71.88,-71.71 -107.7,-158.88 -107.7,-261.33 0,-102.54 35.81,-189.71 107.7,-261.42 71.62,-71.8 158.79,-107.7 261.42,-107.7 105.77,0 194.78,35.9 266.4,107.7 71.88,71.71 107.69,158.88 107.69,261.42 0,102.46 -35.81,189.62 -107.69,261.33 -71.62,68.39 -160.63,102.54 -266.4,102.54zm-323.08 2757.69l0 -2486.05 650.97 0 0 2486.05 -650.97 0zm2288.48 61.49c-369.02,0 -666.43,-117.91 -892.04,-353.65 -222.03,-239.23 -332.95,-558.73 -332.95,-958.5l0 -5.15c0,-410.08 119.49,-727.83 358.63,-953.35 239.23,-225.61 524.58,-338.37 855.96,-338.37 410.25,0 683.64,83.76 820.15,251.2l0 435.67c-177.66,-116.17 -415.23,-174.25 -712.46,-174.25 -198.27,0 -358.89,56.34 -481.78,169.1 -122.98,112.76 -184.47,287.1 -184.47,522.84l0 143.59c0,522.75 234.17,784.17 702.06,784.17 232.51,0 469.82,-66.64 712.46,-199.84l0 369.03c-153.64,204.99 -435.58,307.54 -845.57,307.54zm2044.53 5.15c-396.36,0 -697,-90.58 -902.17,-271.73l0 -415.14c229.01,150.32 503.97,225.52 825.22,225.52 174.25,0 299.06,-23.93 374.36,-71.8 78.61,-47.78 117.91,-122.98 117.91,-225.52 0,-105.95 -53.19,-181.06 -159.05,-225.52 -40.88,-17.12 -162.2,-42.71 -363.96,-76.86 -201.5,-34.15 -348.5,-75.2 -440.73,-123.06 -232.42,-119.57 -348.41,-327.98 -348.41,-625.29 0,-269.98 93.81,-471.57 281.68,-604.85 191.54,-133.29 428.86,-199.93 712.46,-199.93 345.27,0 601.54,71.8 769.06,215.3l0 415.14c-232.42,-112.67 -478.55,-169.1 -738.14,-169.1 -307.53,0 -461.43,95.64 -461.43,287.01 0,102.54 51.27,174.33 153.9,215.3 68.13,27.34 206.57,58.08 415.05,92.23 208.4,30.83 355.4,71.8 440.91,123.07 222.11,112.76 333.21,314.35 333.21,604.85 0,269.89 -92.41,476.63 -276.79,620.22 -181.24,140.1 -425.45,210.15 -733.07,210.15z"/>
 </g>
</svg>
